/* XPM */
static char * max_xpm[] = {
"16 16 2 1",
" 	c #F0D000",
".	c #000000",
"                ",
"                ",
"  ........      ",
"  .      .      ",
"  .      .      ",
"  .  ........   ",
"  .  .   .  .   ",
"  .  .   .  .   ",
"  .  .   .  .   ",
"  ........  .   ",
"     .      .   ",
"     .      .   ",
"     ........   ",
"                ",
"                ",
"                "};
